<svg xmlns="http://www.w3.org/2000/svg" viewBox="0 0 875.91 176.87"><defs><style>.cls-1{fill:#3a547c;}.cls-2{fill:#00a5b0;}</style></defs><g id="Capa_2" data-name="Capa 2"><g id="Capa_2-2" data-name="Capa 2"><path class="cls-1" d="M0,3.87A261.93,261.93,0,0,1,39.85,1.16c24.75,0,40.8,4.45,53.39,13.93,13.53,10.05,22,26.11,22,49.13,0,25-9.09,42.16-21.66,52.8C79.88,128.43,59,133.85,33.46,133.85A254.5,254.5,0,0,1,0,131.91ZM29.6,110.25c2.51.58,6.57.58,10.25.58,26.69.19,44.09-14.51,44.09-45.65.2-27.08-15.67-41.39-41-41.39A61.2,61.2,0,0,0,29.6,25Z"/><rect class="cls-1" x="125.66" y="2.13" width="29.59" height="130.37"/><path class="cls-1" d="M206.06,99l-9.29,33.47H166.21L206.06,2.13h38.69L285.17,132.5H253.45L243.39,99Zm33.08-22L231,49.32c-2.32-7.74-4.64-17.41-6.57-25.14h-.39c-1.93,7.73-3.87,17.6-6,25.14L210.31,77Z"/><polygon class="cls-1" points="296.26 2.13 325.86 2.13 325.86 107.74 377.69 107.74 377.69 132.5 296.26 132.5 296.26 2.13"/><path class="cls-1" d="M655.39,126.5c-9.09,3.1-26.3,7.35-43.52,7.35-23.79,0-41-6-53-17.6C546.88,105,540.3,88,540.49,68.86,540.69,25.53,572.22.77,615,.77c16.83,0,29.8,3.29,36.18,6.38L645,30.75c-7.16-3.09-16.06-5.61-30.37-5.61-24.57,0-43.13,13.93-43.13,42.17,0,26.89,16.82,42.75,41,42.75,6.77,0,12.18-.78,14.51-1.94V80.85H606.84v-23h48.55Z"/><path class="cls-1" d="M792.35,102.13A75.26,75.26,0,0,0,825,110.25c13.54,0,20.69-5.61,20.69-14.12,0-8.12-6.18-12.76-21.85-18.38-21.66-7.54-35.78-19.53-35.78-38.49C788.1,17,806.67,0,837.42,0c14.7,0,25.53,3.09,33.27,6.58l-6.57,23.79a62,62,0,0,0-27.28-6.19c-12.77,0-19,5.8-19,12.57,0,8.31,7.35,12,24.19,18.38,23,8.51,33.84,20.5,33.84,38.87,0,21.86-16.82,40.43-52.61,40.43-14.89,0-29.6-3.87-36.94-7.94Z"/><path class="cls-2" d="M405.38,164.65s-16.87,16.68-16.87-23.37c0-1.61.85-96.92.85-96.92s-.35-42,41.34-42h66.71s36.42,1.85,36.42,42v33s-2.13,45-41.05,45H425.47s-10.59,7.75-20.09,42.26m29.35-64.07h53.41c27,0,25.34-20.25,25.34-20.25s.13-13.74,0-34.12C513.31,23.59,495,24,495,24H432.87c-26.09,0-24.4,21.38-24.4,21.38s-1.54,66.62-.61,67.25,2.77-1.85,2.77-1.85c9.88-11.13,24.1-10.18,24.1-10.18"/><path class="cls-1" d="M700.19,37.26V80.59c0,22.35,8.48,33.72,23.51,33.72,15.42,0,23.89-10.79,23.89-33.72V37.26h29.29v41.4c0,40.08-20.23,59.16-54.15,59.16-32.75,0-52-18.11-52-59.54v-41Z"/><rect class="cls-2" x="670.71" y="5.83" width="29.12" height="23.53"/><rect class="cls-2" x="747.44" y="5.83" width="29.12" height="23.53"/><path class="cls-1" d="M525.48,168.23a15.45,15.45,0,0,1-6.34,1.17c-6.76,0-11.85-4.31-11.85-12.18,0-7.51,5.09-12.6,12.52-12.6a12.86,12.86,0,0,1,5.71,1.07l-.75,2.52a11.47,11.47,0,0,0-4.85-1c-5.62,0-9.36,3.59-9.36,9.89,0,5.88,3.38,9.65,9.22,9.65a12.34,12.34,0,0,0,5.06-1Zm19.37-8c0,6.37-4.41,9.15-8.58,9.15-4.66,0-8.26-3.42-8.26-8.87,0-5.76,3.78-9.15,8.55-9.15C541.5,151.38,544.85,155,544.85,160.25Zm-13.67.18c0,3.77,2.18,6.62,5.23,6.62s5.24-2.82,5.24-6.69c0-2.92-1.46-6.63-5.16-6.63S531.18,157.15,531.18,160.43Zm17.63-4c0-1.78,0-3.24-.14-4.66h2.77l.18,2.84h.08a6.33,6.33,0,0,1,5.69-3.24c2.39,0,6.09,1.43,6.09,7.34V169h-3.14v-9.94c0-2.77-1-5.09-4-5.09a4.44,4.44,0,0,0-4.2,3.21,4.53,4.53,0,0,0-.22,1.46V169h-3.13Zm19.34,9.36a8.14,8.14,0,0,0,4.13,1.25c2.27,0,3.34-1.14,3.34-2.56s-.89-2.32-3.2-3.17c-3.1-1.11-4.56-2.81-4.56-4.88,0-2.78,2.24-5.06,5.95-5.06a8.58,8.58,0,0,1,4.23,1.07l-.78,2.28a6.65,6.65,0,0,0-3.52-1c-1.85,0-2.89,1.07-2.89,2.35s1,2.07,3.28,2.92c3,1.14,4.52,2.64,4.52,5.2,0,3-2.35,5.2-6.44,5.2a9.9,9.9,0,0,1-4.85-1.21Zm18.3-18.15v4.13h4.49v2.38h-4.49v9.29c0,2.14.6,3.35,2.35,3.35a5.63,5.63,0,0,0,1.82-.22l.14,2.35a7.35,7.35,0,0,1-2.78.47,4.36,4.36,0,0,1-3.38-1.35c-.89-.93-1.21-2.46-1.21-4.49v-9.4h-2.67v-2.38h2.67v-3.17Zm8,9.5c0-2,0-3.77-.15-5.37h2.74l.11,3.38h.14a5.17,5.17,0,0,1,4.77-3.78,3.38,3.38,0,0,1,.89.11v2.95a5.49,5.49,0,0,0-1.07-.1c-2.2,0-3.77,1.67-4.2,4a9,9,0,0,0-.14,1.46V169h-3.09Zm26.06,7.16c0,1.78,0,3.35.14,4.7h-2.78l-.18-2.82h-.07a6.48,6.48,0,0,1-5.7,3.21c-2.7,0-5.94-1.5-5.94-7.55V151.78h3.13v9.54c0,3.27,1,5.48,3.85,5.48a4.39,4.39,0,0,0,4.41-4.45V151.78h3.14Zm6.34-12.53L630.64,162c.39,1.14.82,2.49,1.1,3.52h.08c.32-1,.67-2.35,1.1-3.6l3.42-10.1h3.31L635,164.06c-2.24,5.91-3.77,8.93-5.91,10.79a8.45,8.45,0,0,1-3.84,2l-.78-2.63a8.43,8.43,0,0,0,2.74-1.53,9.57,9.57,0,0,0,2.63-3.49,2.3,2.3,0,0,0,.25-.75,2.51,2.51,0,0,0-.22-.81l-6.37-15.88ZM644.25,161c.07,4.23,2.78,6,5.91,6a11.33,11.33,0,0,0,4.77-.89l.53,2.24a13.77,13.77,0,0,1-5.73,1.11c-5.3,0-8.47-3.53-8.47-8.72s3.06-9.3,8.08-9.3c5.62,0,7.12,5,7.12,8.12a10.9,10.9,0,0,1-.11,1.46Zm9.18-2.24c0-2-.81-5.09-4.34-5.09-3.17,0-4.56,2.92-4.81,5.09Zm6.91-2.28c0-1.78,0-3.24-.14-4.66H663l.18,2.84h.07a6.34,6.34,0,0,1,5.69-3.24c2.39,0,6.09,1.43,6.09,7.34V169h-3.13v-9.94c0-2.77-1-5.09-4-5.09a4.46,4.46,0,0,0-4.2,3.21,4.55,4.55,0,0,0-.21,1.46V169h-3.14ZM695,143.73v20.83c0,1.53,0,3.27.14,4.45h-2.81l-.14-3h-.08a6.36,6.36,0,0,1-5.87,3.38c-4.16,0-7.37-3.53-7.37-8.76,0-5.73,3.53-9.26,7.72-9.26a5.79,5.79,0,0,1,5.21,2.63h.06V143.73Zm-3.14,15.06a5.39,5.39,0,0,0-.14-1.32,4.61,4.61,0,0,0-4.52-3.63c-3.24,0-5.16,2.85-5.16,6.65,0,3.5,1.71,6.38,5.09,6.38a4.71,4.71,0,0,0,4.59-3.74,5.28,5.28,0,0,0,.14-1.35Zm23.94,1.46c0,6.37-4.42,9.15-8.59,9.15-4.66,0-8.25-3.42-8.25-8.87,0-5.76,3.77-9.15,8.54-9.15C712.44,151.38,715.79,155,715.79,160.25Zm-13.67.18c0,3.77,2.17,6.62,5.23,6.62s5.23-2.82,5.23-6.69c0-2.92-1.45-6.63-5.16-6.63S702.12,157.15,702.12,160.43Zm37.46,7.93a11.39,11.39,0,0,1-5,1c-5.2,0-8.58-3.56-8.58-8.83s3.63-9.15,9.26-9.15a10.44,10.44,0,0,1,4.34.89l-.71,2.42a7.26,7.26,0,0,0-3.63-.82c-4,0-6.09,2.92-6.09,6.52,0,4,2.56,6.44,6,6.44A8.91,8.91,0,0,0,739,166Zm19.26-8.11c0,6.37-4.41,9.15-8.58,9.15-4.66,0-8.26-3.42-8.26-8.87,0-5.76,3.78-9.15,8.55-9.15C755.49,151.38,758.84,155,758.84,160.25Zm-13.67.18c0,3.77,2.17,6.62,5.23,6.62s5.24-2.82,5.24-6.69c0-2.92-1.46-6.63-5.16-6.63S745.17,157.15,745.17,160.43Zm17.63-4c0-1.78,0-3.24-.14-4.66h2.77l.18,2.84h.07a6.36,6.36,0,0,1,5.7-3.24c2.38,0,6.09,1.43,6.09,7.34V169h-3.14v-9.94c0-2.77-1-5.09-4-5.09a4.44,4.44,0,0,0-4.2,3.21,4.27,4.27,0,0,0-.22,1.46V169H762.8ZM782.88,169V154.16h-2.42v-2.38h2.42v-.93c0-4.56,2.67-7.51,7.51-7.51a8.58,8.58,0,0,1,4.39,1.14l-.9,2.38a6.6,6.6,0,0,0-3.63-1c-3.31,0-4.27,2.32-4.27,5.06v.86h10V169h-3.1V154.16H786V169Zm30.41-4.13a23.67,23.67,0,0,0,.29,4.13h-2.85l-.25-2.18h-.11a6.4,6.4,0,0,1-5.27,2.57,4.91,4.91,0,0,1-5.26-5c0-4.17,3.69-6.44,10.35-6.41v-.35c0-1.43-.39-4-3.91-4a8.63,8.63,0,0,0-4.49,1.28l-.71-2.07a10.71,10.71,0,0,1,5.66-1.53c5.27,0,6.55,3.6,6.55,7.05Zm-3-4.67c-3.42-.07-7.3.54-7.3,3.88a2.76,2.76,0,0,0,2.95,3,4.29,4.29,0,0,0,4.17-2.88,3.45,3.45,0,0,0,.18-1Zm8.09-3.77c0-1.78,0-3.24-.15-4.66H821l.18,2.84h.08a6.34,6.34,0,0,1,5.69-3.24c2.39,0,6.09,1.43,6.09,7.34V169h-3.13v-9.94c0-2.77-1-5.09-4-5.09a4.44,4.44,0,0,0-4.2,3.21,4.53,4.53,0,0,0-.22,1.46V169h-3.12Zm17.8,10.75L844,157c.75-.92,1.46-1.74,2.25-2.66v-.08h-9.33v-2.52H850l0,1.95-7.69,10c-.71,1-1.42,1.81-2.21,2.7v.07h10.08V169h-14Zm29.3-2.31a23.67,23.67,0,0,0,.29,4.13H862.9l-.25-2.18h-.11a6.4,6.4,0,0,1-5.27,2.57,4.91,4.91,0,0,1-5.26-5c0-4.17,3.7-6.44,10.36-6.41v-.35c0-1.43-.4-4-3.92-4A8.61,8.61,0,0,0,854,155l-.71-2.07a10.74,10.74,0,0,1,5.66-1.53c5.27,0,6.55,3.6,6.55,7.05Zm-3-4.67c-3.41-.07-7.29.54-7.29,3.88a2.76,2.76,0,0,0,3,3,4.28,4.28,0,0,0,4.17-2.88,3.14,3.14,0,0,0,.17-1Z"/></g></g></svg>