<svg xmlns="http://www.w3.org/2000/svg" viewBox="0 0 398.74 352"><defs><style>.cls-1{fill:#3a547c;stroke:#fff;stroke-miterlimit:10;}.cls-2{fill:#fff;}</style></defs><g id="Capa_2" data-name="Capa 2"><g id="Capa_1-2" data-name="Capa 1"><path class="cls-1" d="M286.6.5H112.15A24.4,24.4,0,0,0,91,12.71L3.77,163.79a24.43,24.43,0,0,0,0,24.42L91,339.29a24.4,24.4,0,0,0,21.15,12.21H286.6a24.43,24.43,0,0,0,21.15-12.21L395,188.21a24.43,24.43,0,0,0,0-24.42L307.75,12.71A24.43,24.43,0,0,0,286.6.5Z"/><path class="cls-2" d="M110.57,118.73q0-23.22,0-46.43c0-7.43,1-8.6,8.37-10,27.86-5.23,53.61-15.55,76.92-31.76,3.52-2.45,6.66-2.34,10.28,0C230.49,45.93,256.63,57,285,62.58c5.19,1,6.52,2.87,6.53,9.36q.06,35.49,0,71c0,7.74-.07,15.47,0,23.21a17.11,17.11,0,0,1-2.7,9.71c-20.42,32.39-47.65,57.19-82.13,74-3.76,1.82-7.13,2.06-11,.17a196.83,196.83,0,0,1-82.2-73.87,18.92,18.92,0,0,1-3-10.51C110.62,150,110.56,134.35,110.57,118.73Zm13.34,3.18c0,14,0,28,0,42a11.76,11.76,0,0,0,1.67,6.77c18.07,28.18,41.73,50.2,71.55,65.56a7.55,7.55,0,0,0,7.83,0c29.84-15.57,53.6-37.75,72-65.81a10.31,10.31,0,0,0,1.79-5.86q0-42.86,0-85.72c0-3-1.1-4.15-3.94-4.78C250.06,68.58,227,58.75,205.4,45.59c-3-1.86-5.07-1.67-8,.15A211.28,211.28,0,0,1,128,74.08c-3,.64-4.19,1.77-4.16,5C124,93.33,123.92,107.62,123.91,121.91Z"/><path class="cls-2" d="M257.66,141.74c-1.11,21.24-11.46,39-32.57,49-20.89,9.89-41.42,7.61-59.61-6.74-18.37-14.48-25-34.08-20.39-56.89,6.2-30.8,38-50.52,68.55-43.12a29.08,29.08,0,0,1,3.41,1c4,1.51,5.82,4.44,4.89,7.79-1.09,4-4.25,5.89-8.68,4.71-14.67-3.92-28-1.45-40,8-15.76,12.4-20.69,34.35-12,52.8a43.75,43.75,0,0,0,49.55,23.63c19.18-4.4,33.14-21.93,33.35-41.76A44.91,44.91,0,0,0,241,122.24c-2.16-5.24-2.48-5.33-6.14-1.25q-13.73,15.29-27.42,30.58c-5.22,5.81-9.89,5.33-13.67-1.44q-4.46-8-8.69-16.1c-2.32-4.43-1.55-8.22,1.89-10.13,3.63-2,7.19-.54,9.82,4.06,5.47,9.57,5.47,9.57,13,1.17S225,112,232.65,103.51c4.57-5.09,8.08-5,12.41.32C253.56,114.29,257.51,126.35,257.66,141.74Z"/><path class="cls-2" d="M249.21,283.28a6.73,6.73,0,0,0,2.11.7c5.41.79,10.82,1.6,16.23,2.37a1.33,1.33,0,0,1,1.17.76c2,4,3.92,8.05,5.93,12.05.78,1.57,1.34,3.3,2.71,4.53a2.65,2.65,0,0,0,3.64,0,7.59,7.59,0,0,0,1.77-2.5q3.45-6.92,6.9-13.86c.24-.48.48-.89,1.12-1,3.78-.53,7.56-1.1,11.34-1.65a43.37,43.37,0,0,0,5.7-.91c2.76-.79,3.42-2.64,1.89-5a6,6,0,0,0-.82-1c-1.18-1.15-2.38-2.28-3.57-3.42-2.71-2.6-5.25-5.39-8.06-7.89a1.16,1.16,0,0,1-.46-1.14q1-5.7,2-11.39c.34-2,.67-4,.93-5.61,0-3.06-1.77-4.34-4.24-3.54a14.34,14.34,0,0,0-2.29,1c-4.43,2.34-8.86,4.66-13.28,7a1.3,1.3,0,0,1-1.32,0q-4.45-2.35-8.92-4.67c-2.21-1.14-4.34-2.45-6.65-3.38-1.69-.68-3.33-.13-3.92,1.25a4.32,4.32,0,0,0-.35,2.38q.38,2.63.83,5.24c.64,3.77,1.31,7.53,2,11.3a1.38,1.38,0,0,1-.32,1.38c-2.36,2.25-4.68,4.55-7.08,6.76-1.91,1.77-4,3.32-5.83,5.22A3,3,0,0,0,249.21,283.28Zm6.44-6c1.36-1.45,3-2.62,4.43-4,1.82-1.68,3.58-3.43,5.38-5.14a1.06,1.06,0,0,0,.24-1.05c-.51-2.85-1-5.71-1.51-8.58-.23-1.32-.44-2.65-.63-4a3.26,3.26,0,0,1,.27-1.8,2.19,2.19,0,0,1,3-1c1.75.71,3.37,1.7,5.05,2.57,2.26,1.17,4.52,2.36,6.77,3.55a1,1,0,0,0,1,0l10.1-5.32a11.77,11.77,0,0,1,1.73-.79c1.88-.61,3.22.36,3.23,2.69-.2,1.19-.45,2.73-.71,4.26q-.74,4.33-1.5,8.65a.9.9,0,0,0,.35.87c2.14,1.9,4.07,4,6.13,6,.9.86,1.81,1.72,2.71,2.6a3.81,3.81,0,0,1,.62.76c1.16,1.82.66,3.23-1.43,3.83a35.15,35.15,0,0,1-4.33.69l-8.62,1.26c-.48.06-.67.37-.85.74l-5.24,10.53a5.75,5.75,0,0,1-1.35,1.89,2,2,0,0,1-2.76,0,10.37,10.37,0,0,1-2.06-3.43c-1.53-3-3-6.1-4.51-9.16a1,1,0,0,0-.88-.57c-4.11-.59-8.22-1.21-12.33-1.8a5.54,5.54,0,0,1-1.61-.53A2.27,2.27,0,0,1,255.65,277.31Z"/><path class="cls-2" d="M168.72,306.1a6.7,6.7,0,0,0,2.12.7c5.41.78,10.81,1.59,16.23,2.37a1.32,1.32,0,0,1,1.16.76c2,4,3.92,8.05,5.93,12.05.79,1.57,1.34,3.29,2.72,4.52a2.64,2.64,0,0,0,3.63,0,7.66,7.66,0,0,0,1.77-2.49q3.47-6.93,6.9-13.86a1.44,1.44,0,0,1,1.12-1c3.79-.53,7.57-1.1,11.35-1.66a43.89,43.89,0,0,0,5.7-.9c2.75-.79,3.41-2.65,1.89-5.05a6.12,6.12,0,0,0-.83-1c-1.18-1.15-2.37-2.28-3.56-3.42-2.72-2.61-5.25-5.4-8.07-7.9a1.17,1.17,0,0,1-.46-1.14q1-5.69,2-11.39c.35-2,.67-4,.93-5.61,0-3.06-1.77-4.33-4.24-3.54a15.24,15.24,0,0,0-2.29,1.05l-13.28,7a1.3,1.3,0,0,1-1.32.05q-4.46-2.36-8.92-4.68c-2.21-1.14-4.33-2.45-6.65-3.38a2.89,2.89,0,0,0-3.92,1.26,4.39,4.39,0,0,0-.35,2.37c.26,1.75.53,3.5.83,5.25.65,3.76,1.32,7.53,2,11.29a1.4,1.4,0,0,1-.31,1.38c-2.36,2.26-4.69,4.55-7.08,6.77-1.92,1.77-4,3.31-5.83,5.22A3,3,0,0,0,168.72,306.1Zm6.44-6c1.36-1.45,3-2.62,4.43-4,1.82-1.69,3.59-3.43,5.38-5.14a1,1,0,0,0,.24-1q-.77-4.29-1.51-8.58c-.22-1.33-.43-2.66-.62-4a3.27,3.27,0,0,1,.26-1.8,2.19,2.19,0,0,1,3-1c1.76.7,3.37,1.7,5.05,2.57q3.39,1.75,6.78,3.55a1,1,0,0,0,1,0l10.09-5.31a11,11,0,0,1,1.74-.8c1.87-.6,3.21.37,3.22,2.69-.2,1.19-.45,2.73-.71,4.27q-.74,4.32-1.49,8.65a.86.86,0,0,0,.34.86c2.14,1.9,4.07,4,6.13,6l2.71,2.6a5.09,5.09,0,0,1,.63.76c1.15,1.83.65,3.23-1.44,3.83A31.48,31.48,0,0,1,216,305c-2.87.42-5.74.86-8.62,1.26a1.09,1.09,0,0,0-.85.75q-2.62,5.26-5.24,10.52a6,6,0,0,1-1.34,1.9,2,2,0,0,1-2.77,0,10.48,10.48,0,0,1-2.06-3.44c-1.52-3-3-6.1-4.5-9.15a1,1,0,0,0-.89-.58l-12.33-1.8a5.08,5.08,0,0,1-1.61-.53A2.28,2.28,0,0,1,175.16,300.12Z"/><path class="cls-2" d="M90.33,283.31a6.73,6.73,0,0,0,2.11.7c5.41.78,10.82,1.59,16.23,2.37a1.33,1.33,0,0,1,1.17.76c2,4,3.92,8.05,5.93,12.05.79,1.57,1.34,3.3,2.71,4.52a2.65,2.65,0,0,0,3.64,0,7.66,7.66,0,0,0,1.77-2.49l6.9-13.86a1.44,1.44,0,0,1,1.12-1c3.78-.53,7.56-1.1,11.34-1.66a43.36,43.36,0,0,0,5.7-.9c2.76-.79,3.42-2.65,1.89-5a5.33,5.33,0,0,0-.82-1c-1.18-1.15-2.38-2.28-3.57-3.42-2.71-2.61-5.25-5.39-8.06-7.9a1.14,1.14,0,0,1-.46-1.14q1-5.69,2-11.39c.34-2,.67-4,.93-5.6,0-3.07-1.77-4.34-4.24-3.55a14.39,14.39,0,0,0-2.29,1.05l-13.28,7a1.28,1.28,0,0,1-1.32.05q-4.45-2.35-8.92-4.68c-2.21-1.14-4.34-2.45-6.65-3.37-1.69-.68-3.33-.14-3.92,1.25a4.3,4.3,0,0,0-.35,2.37q.38,2.63.83,5.25c.64,3.77,1.31,7.53,2,11.29a1.38,1.38,0,0,1-.32,1.38c-2.36,2.26-4.68,4.55-7.07,6.77-1.92,1.77-4,3.31-5.84,5.22A3,3,0,0,0,90.33,283.31Zm6.44-6c1.36-1.45,3-2.62,4.43-4,1.82-1.69,3.58-3.43,5.38-5.14a1.07,1.07,0,0,0,.24-1.05c-.51-2.86-1-5.72-1.51-8.58-.23-1.33-.43-2.66-.63-4a3.29,3.29,0,0,1,.27-1.8,2.19,2.19,0,0,1,3-.95c1.75.71,3.37,1.7,5,2.57q3.39,1.75,6.77,3.55a1,1,0,0,0,1,0l10.1-5.31a10,10,0,0,1,1.73-.79c1.88-.61,3.22.36,3.23,2.69-.2,1.19-.45,2.72-.71,4.26-.49,2.88-1,5.77-1.5,8.65a.88.88,0,0,0,.35.86c2.14,1.91,4.07,4,6.13,6l2.71,2.6a4.48,4.48,0,0,1,.62.76c1.16,1.83.66,3.23-1.43,3.83a31.73,31.73,0,0,1-4.33.69c-2.87.43-5.74.86-8.62,1.26a1.09,1.09,0,0,0-.85.75l-5.24,10.53a5.85,5.85,0,0,1-1.35,1.89,2,2,0,0,1-2.76,0,10.48,10.48,0,0,1-2.06-3.44c-1.53-3-3-6.09-4.51-9.15a1,1,0,0,0-.88-.58l-12.33-1.8a5,5,0,0,1-1.61-.53A2.27,2.27,0,0,1,96.77,277.33Z"/><path class="cls-2" d="M296.58,224.2a6.7,6.7,0,0,0,2.12.7c5.41.79,10.82,1.6,16.23,2.37a1.32,1.32,0,0,1,1.16.76c2,4,3.92,8.05,5.93,12.05.79,1.57,1.34,3.3,2.72,4.53a2.65,2.65,0,0,0,3.64,0,7.56,7.56,0,0,0,1.76-2.5q3.47-6.92,6.9-13.86a1.44,1.44,0,0,1,1.13-1c3.78-.53,7.56-1.1,11.34-1.65a45.4,45.4,0,0,0,5.7-.91c2.75-.79,3.41-2.64,1.89-5a6.11,6.11,0,0,0-.83-1c-1.17-1.15-2.37-2.28-3.56-3.42-2.72-2.6-5.25-5.39-8.07-7.89a1.15,1.15,0,0,1-.45-1.14q1-5.7,2-11.39c.35-2,.68-4,.94-5.61,0-3.06-1.78-4.34-4.25-3.54a14.65,14.65,0,0,0-2.28,1l-13.29,7a1.3,1.3,0,0,1-1.32,0q-4.44-2.35-8.92-4.67c-2.21-1.14-4.33-2.45-6.64-3.38-1.69-.68-3.33-.14-3.93,1.25a4.51,4.51,0,0,0-.35,2.38c.26,1.75.53,3.5.83,5.24.65,3.77,1.32,7.53,2,11.3a1.38,1.38,0,0,1-.31,1.38c-2.36,2.25-4.68,4.55-7.08,6.76-1.92,1.77-4,3.31-5.83,5.22A3,3,0,0,0,296.58,224.2Zm6.44-6c1.37-1.45,3-2.62,4.44-4,1.82-1.68,3.58-3.43,5.37-5.14a1,1,0,0,0,.24-1.05c-.5-2.86-1-5.71-1.5-8.58-.23-1.32-.44-2.65-.63-4a3.35,3.35,0,0,1,.26-1.8,2.19,2.19,0,0,1,3-1c1.76.71,3.37,1.7,5.05,2.57,2.27,1.17,4.52,2.36,6.78,3.55a1,1,0,0,0,1,0c3.36-1.77,6.73-3.53,10.09-5.31a12.38,12.38,0,0,1,1.74-.79c1.88-.61,3.22.36,3.22,2.69-.2,1.19-.45,2.73-.71,4.26-.49,2.89-1,5.77-1.49,8.65a.88.88,0,0,0,.35.87c2.13,1.9,4.06,4,6.12,6,.91.86,1.82,1.72,2.71,2.6a3.86,3.86,0,0,1,.63.76c1.16,1.82.66,3.23-1.44,3.83a34.56,34.56,0,0,1-4.33.69l-8.61,1.26a1.06,1.06,0,0,0-.86.74q-2.61,5.26-5.24,10.53a5.87,5.87,0,0,1-1.34,1.89,2,2,0,0,1-2.76,0,10.39,10.39,0,0,1-2.07-3.43c-1.52-3-3-6.1-4.5-9.16a1,1,0,0,0-.89-.57l-12.33-1.8a5.48,5.48,0,0,1-1.6-.53A2.28,2.28,0,0,1,303,218.23Z"/><path class="cls-2" d="M48.58,224.2a6.7,6.7,0,0,0,2.12.7c5.41.79,10.82,1.6,16.23,2.37a1.32,1.32,0,0,1,1.16.76c2,4,3.92,8.05,5.93,12.05.79,1.57,1.34,3.3,2.72,4.53a2.65,2.65,0,0,0,3.64,0,7.56,7.56,0,0,0,1.76-2.5q3.47-6.92,6.9-13.86a1.44,1.44,0,0,1,1.13-1c3.78-.53,7.56-1.1,11.34-1.65a45.4,45.4,0,0,0,5.7-.91c2.75-.79,3.41-2.64,1.89-5a6.11,6.11,0,0,0-.83-1c-1.17-1.15-2.37-2.28-3.56-3.42-2.72-2.6-5.25-5.39-8.07-7.89a1.15,1.15,0,0,1-.45-1.14q1-5.7,2-11.39c.35-2,.68-4,.94-5.61,0-3.06-1.78-4.34-4.25-3.54a14.65,14.65,0,0,0-2.28,1l-13.29,7a1.3,1.3,0,0,1-1.32,0q-4.44-2.35-8.92-4.67c-2.21-1.14-4.33-2.45-6.64-3.38-1.69-.68-3.33-.14-3.93,1.25a4.51,4.51,0,0,0-.35,2.38c.26,1.75.53,3.5.83,5.24.65,3.77,1.32,7.53,2,11.3a1.38,1.38,0,0,1-.31,1.38c-2.36,2.25-4.68,4.55-7.08,6.76-1.92,1.77-4,3.31-5.83,5.22A3,3,0,0,0,48.58,224.2Zm6.44-6c1.37-1.45,3-2.62,4.44-4,1.82-1.68,3.58-3.43,5.37-5.14a1,1,0,0,0,.24-1.05c-.5-2.86-1-5.71-1.5-8.58-.23-1.32-.44-2.65-.63-4a3.35,3.35,0,0,1,.26-1.8,2.19,2.19,0,0,1,3-1c1.76.71,3.37,1.7,5,2.57,2.27,1.17,4.52,2.36,6.78,3.55a1,1,0,0,0,1,0c3.36-1.77,6.73-3.53,10.09-5.31a12.38,12.38,0,0,1,1.74-.79c1.88-.61,3.22.36,3.22,2.69-.2,1.19-.45,2.73-.71,4.26-.49,2.89-1,5.77-1.49,8.65a.88.88,0,0,0,.35.87c2.13,1.9,4.06,4,6.12,6,.91.86,1.82,1.72,2.71,2.6a3.86,3.86,0,0,1,.63.76c1.16,1.82.66,3.23-1.44,3.83a34.56,34.56,0,0,1-4.33.69l-8.61,1.26a1.06,1.06,0,0,0-.86.74q-2.61,5.26-5.24,10.53a5.87,5.87,0,0,1-1.34,1.89,2,2,0,0,1-2.76,0A10.39,10.39,0,0,1,75,234.06c-1.52-3-3-6.1-4.5-9.16a1,1,0,0,0-.89-.57l-12.33-1.8a5.48,5.48,0,0,1-1.6-.53A2.28,2.28,0,0,1,55,218.23Z"/></g></g></svg>