<svg xmlns="http://www.w3.org/2000/svg" viewBox="0 0 56.53 56.53"><defs><style>.cls-1{fill:#419da8;}</style></defs><g id="Capa_2" data-name="Capa 2"><g id="back"><path class="cls-1" d="M28.27,56.53A28.27,28.27,0,1,1,56.53,28.27,28.3,28.3,0,0,1,28.27,56.53ZM28.27,3A25.23,25.23,0,1,0,53.49,28.27,25.26,25.26,0,0,0,28.27,3Z"/><path class="cls-1" d="M44.25,30.42V41a.47.47,0,0,1-.48.47H38.33a.48.48,0,0,1-.48-.47V31.16c0-2.59-.92-4.35-3.23-4.35a3.49,3.49,0,0,0-3.28,2.34,4.34,4.34,0,0,0-.21,1.56V41a.48.48,0,0,1-.48.47H25.21a.47.47,0,0,1-.48-.47c0-2.61.07-15.29,0-18.28a.46.46,0,0,1,.47-.47h5.43a.48.48,0,0,1,.48.47v2.25l-.05.06h.05v-.06a6.33,6.33,0,0,1,5.76-3.17c4.2,0,7.36,2.74,7.36,8.65Zm-29,11h5.44A.47.47,0,0,0,21.2,41V22.69a.47.47,0,0,0-.48-.47H15.28a.47.47,0,0,0-.47.47V41A.47.47,0,0,0,15.28,41.44Z"/><circle class="cls-1" cx="17.81" cy="16.35" r="3.42"/></g></g></svg>