<svg xmlns="http://www.w3.org/2000/svg" viewBox="0 0 51.63 37.46"><defs><style>.cls-1{fill:#fff;}</style></defs><g id="Capa_2" data-name="Capa 2"><g id="Capa_1-2" data-name="Capa 1"><path class="cls-1" d="M46.31,37.46h-41A5.33,5.33,0,0,1,0,32.13V5.32A5.33,5.33,0,0,1,5.32,0h41a5.33,5.33,0,0,1,5.32,5.32V32.13a5.33,5.33,0,0,1-5.32,5.33ZM5.32,4.51a.81.81,0,0,0-.81.81V32.13a.81.81,0,0,0,.81.81h41a.81.81,0,0,0,.81-.81V5.32a.81.81,0,0,0-.81-.81Z"/><path class="cls-1" d="M46.31,36.33h-41a4.22,4.22,0,0,1-3.91-2.71,1.13,1.13,0,0,1,.3-1.24l16-14.27a1.13,1.13,0,0,1,1.51,1.68L3.9,33.44a2,2,0,0,0,1.42.63h41a2,2,0,0,0,1.42-.63L32.24,19.63A1.13,1.13,0,1,1,33.74,18L49.92,32.38a1.11,1.11,0,0,1,.3,1.24,4.2,4.2,0,0,1-3.91,2.71Z"/><path class="cls-1" d="M25.82,26.19a1.17,1.17,0,0,1-.76-.29L1.71,5.08a1.13,1.13,0,0,1-.3-1.24A4.22,4.22,0,0,1,5.32,1.13h41a4.2,4.2,0,0,1,3.91,2.71,1.11,1.11,0,0,1-.3,1.24L26.57,25.9a1.12,1.12,0,0,1-.75.29ZM3.91,4,25.82,23.55,47.73,4a2,2,0,0,0-1.42-.63h-41A1.93,1.93,0,0,0,3.91,4Z"/></g></g></svg>