<svg xmlns="http://www.w3.org/2000/svg" viewBox="0 0 109.3 101.09">
    <defs>
        <style>.cls-1{fill:#3f5479;}.cls-2{fill:#0098a5;}.cls-3{fill:none;stroke:#3f5479;stroke-miterlimit:10;stroke-width:1.15px;}</style>
    </defs>
    <g id="Capa_2" data-name="Capa 2">
        <g id="Capa_1-2" data-name="Capa 1">
            <path class="cls-1" d="M51.93,67.28a2.58,2.58,0,0,1-2.49-1.87L43,43.2l-3.12,6.06a2.63,2.63,0,0,1-2.31,1.4H2.6a2.6,2.6,0,1,1,0-5.19H36L41.41,35A2.55,2.55,0,0,1,44,33.64a2.6,2.6,0,0,1,2.25,1.86l5.44,18.88,3.87-16.65a2.59,2.59,0,0,1,2.49-2,2.53,2.53,0,0,1,2.54,2l2,7.56,44.13-.72a2.67,2.67,0,0,1,2.65,2.54,2.59,2.59,0,0,1-2.53,2.65l-46.18.76a2.75,2.75,0,0,1-2.37-1.41L54.46,65.27a2.6,2.6,0,0,1-2.46,2Z"/>
            <path class="cls-2" d="M39.1,33.72a5.17,5.17,0,0,1,9.65.89l2.64,9.7,1.83-7.43a5.17,5.17,0,0,1,10-.13L65,43.27,94.7,42.2l-2.24-1.88,2.37-6.51-6.28-2.93.6-6.9-6.82-1.21L81.13,16l-6.91.6L71.3,10.27l-6.52,2.37L60.33,7.33l-5.67,4L49,7.33l-4.46,5.31L38,10.27l-2.93,6.28-6.9-.6L27,22.77,20.15,24l.61,6.9-6.29,2.93,2.38,6.51-3.5,2.93H34.49Z"/>
            <path class="cls-2" d="M59.76,53.58,56.67,66.17a5.17,5.17,0,0,1-5,3.93h-.06a5.18,5.18,0,0,1-5-3.81L42.4,50.66v0a5.17,5.17,0,0,1-4.65,2.92H13.31l-1.77,2.53,5.31,4.45-2.38,6.51L20.76,70l-.61,6.9L27,78.13,28.18,85l6.9-.6L38,90.63l6.52-2.37L49,93.57l5.67-4,5.68,4,4.45-5.31,6.52,2.37,2.92-6.28,6.91.6,1.2-6.82,6.82-1.21-.6-6.9,6.28-2.93-2.37-6.51,5.31-4.45-2.52-3.6-34,1.22a5.17,5.17,0,0,1-1.53-.17"/>
            <path class="cls-3" d="M4.55,53.34c1.56,29,29.38,50.87,58.05,46.66,23.61-4.22,39.63-23.61,42.16-47.22"/>
            <path class="cls-3" d="M104,42.82a49.91,49.91,0,0,0-85.56-26.7A50.15,50.15,0,0,0,5.27,43.51"/>
        </g>
    </g>
</svg>
