<svg xmlns="http://www.w3.org/2000/svg" viewBox="0 0 623.46 125.9"><defs><style>.cls-1{fill:#3f5479;}.cls-2{fill:#31a2ae;}</style></defs><g id="Capa_2" data-name="Capa 2"><g id="Capa_1-2" data-name="Capa 1"><path class="cls-1" d="M0,2.75A187.15,187.15,0,0,1,28.36.82C46,.82,57.41,4,66.36,10.74c9.64,7.16,15.7,18.58,15.7,35,0,17.76-6.48,30-15.42,37.58-9.78,8.13-24.65,12-42.82,12A181.26,181.26,0,0,1,0,93.89ZM21.07,78.47a37.83,37.83,0,0,0,7.29.42c19,.13,31.39-10.33,31.39-32.49.14-19.28-11.15-29.47-29.19-29.47a43.58,43.58,0,0,0-9.49.83Z"/><rect class="cls-1" x="89.44" y="1.51" width="21.06" height="92.79"/><path class="cls-1" d="M146.67,70.49l-6.61,23.82H118.31l28.36-92.8h27.54L203,94.31H180.4l-7.16-23.82Zm23.55-15.7-5.79-19.68c-1.65-5.51-3.3-12.4-4.68-17.9h-.27c-1.38,5.5-2.76,12.53-4.27,17.9L149.7,54.79Z"/><polygon class="cls-1" points="210.88 1.51 231.94 1.51 231.94 76.69 268.83 76.69 268.83 94.31 210.88 94.31 210.88 1.51"/><path class="cls-1" d="M466.5,90a104,104,0,0,1-31,5.23c-16.94,0-29.19-4.27-37.72-12.53-8.54-8-13.22-20.1-13.09-33.73.14-30.84,22.58-48.46,53-48.46,12,0,21.21,2.34,25.75,4.54l-4.41,16.8c-5.09-2.2-11.42-4-21.61-4-17.49,0-30.7,9.91-30.7,30,0,19.14,12,30.43,29.18,30.43,4.82,0,8.67-.55,10.33-1.38V57.55H431.94V41.16H466.5Z"/><path class="cls-1" d="M564,72.69a53.58,53.58,0,0,0,23.27,5.78c9.64,0,14.73-4,14.73-10,0-5.78-4.4-9.08-15.56-13.08C571,50,561,41.44,561,28,561,12.11,574.17,0,596.06,0a56.81,56.81,0,0,1,23.68,4.68l-4.68,16.93a44.21,44.21,0,0,0-19.41-4.4c-9.09,0-13.49,4.13-13.49,9,0,5.92,5.23,8.53,17.21,13.08,16.38,6.06,24.09,14.59,24.09,27.67,0,15.56-12,28.77-37.45,28.77-10.6,0-21.07-2.75-26.3-5.64Z"/><path class="cls-2" d="M288.54,117.19s-12,11.88-12-16.63c0-1.14.6-69,.6-69s-.25-29.9,29.42-29.9h47.49S380,3,380,31.57V55.09s-1.52,32-29.22,32H302.84s-7.54,5.51-14.3,30.07m20.89-45.6h38c19.24,0,18-14.41,18-14.41s.1-9.78,0-24.29c-.11-16.1-13.13-15.82-13.13-15.82H308.11c-18.57,0-17.37,15.22-17.37,15.22s-1.09,47.42-.43,47.86,2-1.31,2-1.31c7-7.93,17.15-7.25,17.15-7.25"/><path class="cls-1" d="M498.38,26.52V57.37c0,15.9,6,24,16.74,24,11,0,17-7.68,17-24V26.52H553V56c0,28.53-14.4,42.11-38.54,42.11-23.32,0-37-12.9-37-42.38V26.52Z"/><rect class="cls-2" x="477.4" y="4.15" width="20.73" height="16.75"/><rect class="cls-2" x="532.02" y="4.15" width="20.73" height="16.75"/><path class="cls-1" d="M374,119.74a11,11,0,0,1-4.51.83c-4.82,0-8.44-3.06-8.44-8.66,0-5.35,3.62-9,8.91-9a9,9,0,0,1,4.06.76l-.53,1.8a8,8,0,0,0-3.45-.71c-4,0-6.66,2.56-6.66,7,0,4.18,2.41,6.87,6.56,6.87a8.87,8.87,0,0,0,3.6-.71Zm13.79-5.68c0,4.54-3.15,6.51-6.11,6.51-3.32,0-5.88-2.43-5.88-6.31,0-4.1,2.69-6.51,6.08-6.51S387.82,110.31,387.82,114.06Zm-9.73.13c0,2.69,1.54,4.71,3.72,4.71s3.73-2,3.73-4.76c0-2.08-1-4.72-3.68-4.72S378.09,111.86,378.09,114.19Zm12.54-2.84c0-1.27,0-2.31-.1-3.32h2l.13,2h.05a4.5,4.5,0,0,1,4.05-2.31c1.7,0,4.33,1,4.33,5.22v7.33h-2.23v-7.07c0-2-.73-3.63-2.84-3.63a3.16,3.16,0,0,0-3,2.28,3.25,3.25,0,0,0-.16,1v7.38h-2.23ZM404.4,118a5.81,5.81,0,0,0,2.94.88c1.62,0,2.38-.81,2.38-1.82s-.64-1.65-2.28-2.26c-2.21-.78-3.25-2-3.25-3.47,0-2,1.6-3.6,4.24-3.6a6.15,6.15,0,0,1,3,.76l-.56,1.62a4.74,4.74,0,0,0-2.5-.71c-1.32,0-2.06.77-2.06,1.68s.74,1.47,2.34,2.07c2.13.82,3.21,1.88,3.21,3.71,0,2.15-1.67,3.69-4.58,3.69a7,7,0,0,1-3.45-.86Zm13-12.93V108h3.2v1.7h-3.2v6.61c0,1.52.43,2.38,1.68,2.38a4.19,4.19,0,0,0,1.29-.15l.1,1.67a5.3,5.3,0,0,1-2,.33,3.09,3.09,0,0,1-2.4-1,4.5,4.5,0,0,1-.86-3.19v-6.69h-1.91V108h1.91v-2.25Zm5.71,6.77c0-1.45,0-2.69-.1-3.83h2l.07,2.41h.11a3.67,3.67,0,0,1,3.39-2.69,2.55,2.55,0,0,1,.64.08v2.1a3.5,3.5,0,0,0-.77-.08,3.15,3.15,0,0,0-3,2.87,6.33,6.33,0,0,0-.1,1v6.54h-2.2ZM441.68,117c0,1.27,0,2.38.1,3.35h-2l-.12-2h-.05a4.62,4.62,0,0,1-4.06,2.28c-1.92,0-4.23-1.06-4.23-5.37V108h2.23v6.79c0,2.33.71,3.9,2.74,3.9a3.24,3.24,0,0,0,2.94-2,3.11,3.11,0,0,0,.2-1.13V108h2.23Zm4.51-8.92,2.69,7.25c.28.81.58,1.77.78,2.51h.06c.23-.74.48-1.68.78-2.56l2.43-7.2h2.36L452,116.77c-1.6,4.21-2.69,6.36-4.21,7.68A6.11,6.11,0,0,1,445,125.9l-.56-1.88a5.88,5.88,0,0,0,1.95-1.09,6.64,6.64,0,0,0,1.87-2.48,1.71,1.71,0,0,0,.18-.53,2,2,0,0,0-.15-.59L443.76,108Zm12.37,6.54c.06,3,2,4.26,4.21,4.26a7.91,7.91,0,0,0,3.39-.64l.39,1.6a10,10,0,0,1-4.08.78c-3.78,0-6-2.5-6-6.2s2.18-6.62,5.75-6.62c4,0,5.07,3.53,5.07,5.78a7.43,7.43,0,0,1-.08,1Zm6.54-1.6c0-1.42-.58-3.62-3.09-3.62-2.26,0-3.24,2.08-3.42,3.62Zm4.92-1.62c0-1.27,0-2.31-.1-3.32h2l.12,2h.05a4.51,4.51,0,0,1,4.06-2.31c1.7,0,4.33,1,4.33,5.22v7.33h-2.23v-7.07c0-2-.73-3.63-2.84-3.63a3.19,3.19,0,0,0-3,2.28,3.26,3.26,0,0,0-.15,1v7.38H470Zm24.66-9v14.82c0,1.09,0,2.33.1,3.17h-2l-.1-2.13h-.05a4.54,4.54,0,0,1-4.18,2.4c-3,0-5.25-2.5-5.25-6.23,0-4.08,2.51-6.59,5.5-6.59a4.09,4.09,0,0,1,3.7,1.88h.05v-7.32ZM492.45,113a4.42,4.42,0,0,0-.1-.94,3.29,3.29,0,0,0-3.22-2.58c-2.3,0-3.67,2-3.67,4.74,0,2.48,1.22,4.54,3.62,4.54a3.35,3.35,0,0,0,3.27-2.67,4.1,4.1,0,0,0,.1-1Zm17,1c0,4.54-3.15,6.51-6.11,6.51-3.32,0-5.88-2.43-5.88-6.31,0-4.1,2.68-6.51,6.08-6.51S509.49,110.31,509.49,114.06Zm-9.74.13c0,2.69,1.55,4.71,3.73,4.71s3.73-2,3.73-4.76c0-2.08-1-4.72-3.68-4.72S499.75,111.86,499.75,114.19Zm26.67,5.65a8.25,8.25,0,0,1-3.52.73c-3.71,0-6.11-2.53-6.11-6.28a6.23,6.23,0,0,1,6.59-6.51,7.56,7.56,0,0,1,3.09.63l-.51,1.72a5.21,5.21,0,0,0-2.58-.58c-2.81,0-4.33,2.08-4.33,4.64,0,2.84,1.82,4.59,4.25,4.59a6.34,6.34,0,0,0,2.74-.61Zm13.71-5.78c0,4.54-3.14,6.51-6.11,6.51-3.32,0-5.88-2.43-5.88-6.31,0-4.1,2.69-6.51,6.09-6.51S540.13,110.31,540.13,114.06Zm-9.73.13c0,2.69,1.55,4.71,3.72,4.71s3.73-2,3.73-4.76c0-2.08-1-4.72-3.67-4.72S530.4,111.86,530.4,114.19ZM543,111.35c0-1.27,0-2.31-.1-3.32h2l.13,2h0a4.51,4.51,0,0,1,4.06-2.31c1.69,0,4.33,1,4.33,5.22v7.33h-2.24v-7.07c0-2-.73-3.63-2.83-3.63a3.17,3.17,0,0,0-3,2.28,3.26,3.26,0,0,0-.15,1v7.38H543Zm14.29,9V109.73h-1.72V108h1.72v-.66c0-3.24,1.9-5.34,5.35-5.34a6.13,6.13,0,0,1,3.12.81l-.64,1.69a4.66,4.66,0,0,0-2.58-.71c-2.36,0-3,1.65-3,3.6V108h7.12V120.3h-2.2V109.73h-4.92V120.3Zm21.65-2.94a17.57,17.57,0,0,0,.2,2.94h-2l-.18-1.55h-.07a4.56,4.56,0,0,1-3.75,1.82,3.49,3.49,0,0,1-3.75-3.52c0-3,2.63-4.58,7.37-4.56v-.25a2.52,2.52,0,0,0-2.79-2.84,6.1,6.1,0,0,0-3.19.91l-.5-1.47a7.57,7.57,0,0,1,4-1.09c3.76,0,4.67,2.56,4.67,5ZM576.73,114c-2.43-.05-5.19.38-5.19,2.76a2,2,0,0,0,2.1,2.13,3.07,3.07,0,0,0,3-2.05,2.58,2.58,0,0,0,.12-.71Zm5.76-2.69c0-1.27,0-2.31-.1-3.32h2l.13,2h0a4.51,4.51,0,0,1,4.05-2.31c1.7,0,4.34,1,4.34,5.22v7.33H590.7v-7.07c0-2-.74-3.63-2.84-3.63a3.17,3.17,0,0,0-3,2.28,3.26,3.26,0,0,0-.15,1v7.38h-2.23ZM595.16,119l5.55-7.22c.53-.66,1-1.24,1.6-1.9v0h-6.64V108H605l0,1.39-5.48,7.13c-.51.68-1,1.29-1.57,1.92v0h7.17v1.78h-10ZM616,117.36a17.57,17.57,0,0,0,.2,2.94h-2l-.17-1.55h-.08a4.56,4.56,0,0,1-3.75,1.82,3.49,3.49,0,0,1-3.75-3.52c0-3,2.64-4.58,7.38-4.56v-.25A2.53,2.53,0,0,0,611,109.4a6.07,6.07,0,0,0-3.19.91l-.51-1.47a7.58,7.58,0,0,1,4-1.09c3.75,0,4.66,2.56,4.66,5ZM613.87,114c-2.44-.05-5.2.38-5.2,2.76a2,2,0,0,0,2.1,2.13,3.06,3.06,0,0,0,3-2.05,2.27,2.27,0,0,0,.13-.71Z"/></g></g></svg>