<svg xmlns="http://www.w3.org/2000/svg" viewBox="0 0 55.49 55.5"><defs><style>.cls-1{fill:#fff;}</style></defs><g id="Capa_2" data-name="Capa 2"><g id="Capa_1-2" data-name="Capa 1"><path class="cls-1" d="M43.78,55.5c-10.64,0-21.63-4.9-30.17-13.44l-.18-.18h0C4.58,33-.25,21.73,0,10.91l0-.79.49-.63A30.34,30.34,0,0,1,2.83,6.87,29.21,29.21,0,0,1,13,.27,4.33,4.33,0,0,1,14.52,0c1.29,0,4.18.66,4.92,2.68,1.31,3.63,2.95,8.35,4.15,12.87.33,1.27,0,4.34-1.77,5.45L17.6,23.68a3.28,3.28,0,0,0,.57,1.45,59.71,59.71,0,0,0,5.64,6.6,58.65,58.65,0,0,0,6.56,5.59,2.4,2.4,0,0,0,1.32.5l1.46-2,1.35-2.13c1.17-1.81,4.1-1.86,4.43-1.86a4.38,4.38,0,0,1,.93.09A59.83,59.83,0,0,1,53,36.13c1.89.85,3.08,4.27,2.24,6.42a29,29,0,0,1-6.58,10.11A27.9,27.9,0,0,1,46,55l-.62.49-1.6,0Zm-39-43.67c0,9.22,4.5,19.14,12,26.68l.23.24c7.56,7.56,17.28,11.94,26.63,12,.55-.46,1.08-.95,1.58-1.44a24.21,24.21,0,0,0,5.5-8.46s-.11-.31-.21-.55a56.23,56.23,0,0,0-11.74-3.72l-.56.12-2.4,3.79c-1.49,2.42-5.45,2.81-8.3.72a64.15,64.15,0,0,1-7.12-6.07A65.39,65.39,0,0,1,14.31,28,6.77,6.77,0,0,1,13,22.72a4.61,4.61,0,0,1,2.06-3.09l3.78-2.39a2.58,2.58,0,0,0,.1-.66c-1.05-3.91-2.54-8.23-3.77-11.66a2,2,0,0,0-.65-.14,24.54,24.54,0,0,0-8.3,5.46c-.49.49-1,1-1.44,1.59Z"/></g></g></svg>