<svg xmlns="http://www.w3.org/2000/svg" viewBox="0 0 43.48 51.42"><defs><style>.cls-1{fill:#fff;}</style></defs><g id="Capa_2" data-name="Capa 2"><g id="Capa_1-2" data-name="Capa 1"><path class="cls-1" d="M21.74,51.42a2.13,2.13,0,0,1-1.38-.51C18.28,49.14,0,33.22,0,21.74a21.74,21.74,0,0,1,43.48,0c0,11.48-18.28,27.4-20.37,29.17a2.08,2.08,0,0,1-1.37.51Zm0-47.18a17.52,17.52,0,0,0-17.5,17.5c0,7.44,11.58,19.41,17.5,24.74,5.92-5.33,17.5-17.3,17.5-24.74a17.52,17.52,0,0,0-17.5-17.5Z"/><path class="cls-1" d="M21.74,32.34a10.61,10.61,0,1,1,10.6-10.6,10.62,10.62,0,0,1-10.6,10.6Zm0-17a6.36,6.36,0,1,0,6.36,6.36,6.36,6.36,0,0,0-6.36-6.36Z"/></g></g></svg>