<svg xmlns="http://www.w3.org/2000/svg" viewBox="0 0 661.32 260.95"><defs><style>.cls-1{fill:#b38808;}.cls-2{fill:#fff;}</style></defs><g id="Capa_2" data-name="Capa 2"><g id="R"><path class="cls-1" d="M255,108.85c0,90.58-93.89,132.89-133.17,139.66C33,263.8,0,220.34,0,220.34s.71,13.87,34.33,29.22,100.94,21.05,172.79-21.31c79.55-46.93,88.38-101.2,91.74-116.06C305.12,84.31,297.41,23,216.31,23S99.37,73.45,99.37,73.45s44.58-8.87,68.71,0L156.39,50.07S255,33.29,255,108.85Z"/><path d="M45.61,152.15c0-90.63,93.9-132.91,133.2-139.71,92.1-15.89,121.76,28.19,121.76,28.19s-.73-13.87-34.36-29.23S165.29-9.67,93.45,32.71C13.91,79.63,5,133.94,1.69,148.78-4.57,176.66,3.15,238,84.26,238s116.92-50.44,116.92-50.44-44.57,8.88-68.69,0l11.7,23.41S45.61,227.69,45.61,152.15Z"/><g id="title"><path class="cls-2" d="M70.92,93.23h45.42L115,105.39H85.19l-1.81,17.48H111l-1.2,11.45H82.17l-1.9,17.79h32.25l-1.31,12.15H63.49Z"/><path class="cls-2" d="M115,160.45l5.43-11.76c6.43,2.31,11.65,3.82,18.58,3.82,5.63,0,14-1.41,14-8.54,0-11.05-30.54-9.65-30.54-30.65,0-14.86,13.06-21.2,26.32-21.2a48.16,48.16,0,0,1,21.9,4.73l-5.62,11.05a45.12,45.12,0,0,0-16.38-3c-4.52,0-10.85,1-10.85,6.64,0,9.54,31,10.54,31,30.44,0,17.48-16.38,23.61-31,23.61A53.43,53.43,0,0,1,115,160.45Z"/><path class="cls-2" d="M199.63,137.44a44,44,0,0,1-5.12.3c-1.71,0-3.32-.1-5-.1l-2.81,26.62H171.1l7.43-71h26.63c12.86,0,24.31,5.43,24.31,19.19,0,10-4.72,17.08-13.66,21.4L233.59,161l-14.37,7.23Zm-2.51-10.85c9.44,0,16.28-2.72,16.28-13.07,0-7-5.43-8-11.66-8H192.9l-2.21,21.1Z"/></g><g id="texto"><path class="cls-2" d="M342.38,62.05h24.25l-.69,6.5H350l-1,9.36h14.76L363.15,84H348.39l-1,9.52h17.22l-.69,6.5H338.41Z"/><path class="cls-2" d="M373.13,70.7h6.55l-.38,3.77C381.45,73,385.36,70,388.85,70c3.87,0,5.31,1.24,5.64,4.36,2.2-1.56,6.54-4.36,9.87-4.36,4.29,0,5.79,1.51,5.79,5.75,0,.92-.1,2-.21,3.18l-2.25,21.18h-6.55l2.15-20c0-.86.16-1.55.16-2.09,0-1.29-.38-1.78-1.61-1.78-1.83,0-6.33,2.8-7.51,3.39l-2.15,20.43h-6.6l2.15-20a21.9,21.9,0,0,0,.16-2.2c0-1.24-.38-1.61-1.61-1.61-1.83,0-6.28,2.9-7.57,3.6l-2.15,20.16H370Z"/><path class="cls-2" d="M418.69,70.7h6.6L425,73.55c1.93-1.45,5.31-3.17,8.32-3.17,5,0,7.46,2.9,7.46,9.14,0,9.25-4.3,21.08-16.05,21.08a17.23,17.23,0,0,1-2.52-.16l-1.24,11.45H414.4Zm15.51,8.88c0-2.85-1.24-3.71-2.63-3.71-2.2,0-5.15,1.61-7.14,2.74l-1.71,16.45a10.51,10.51,0,0,0,2.3.27C432,95.33,434.2,85.22,434.2,79.58Z"/><path class="cls-2" d="M447.83,70.7h6.55L454,74.41c2.1-1.66,5.21-4.24,8.48-4.24a7.07,7.07,0,0,1,1.72.16L463,76.67a9,9,0,0,0-2.36-.21c-2.2,0-5.37,2.42-7.19,3.87l-2.2,19.73h-6.55Z"/><path class="cls-2" d="M463.72,89.52c0-9.89,4.88-19.62,15.29-19.62,6.17,0,8.8,3.6,8.8,7.47,0,5-4.56,7.32-9.06,8.82L470.48,89a6.64,6.64,0,0,0-.05,1c0,3.49.8,5.16,2.89,5.16,2.31,0,5.43-1.24,8.91-3.12l2.31,4.52c-3.76,2.36-7.51,4.14-12.72,4.14C465.11,100.71,463.72,94.9,463.72,89.52ZM478.42,81c2-.81,3.06-2,3.06-3.39a2.43,2.43,0,0,0-2.63-2.47c-4.24,0-6.81,3.71-7.83,8.65Z"/><path class="cls-2" d="M487.87,98.88l1.77-5.22a25.84,25.84,0,0,0,7.94,1.46c2.15,0,5-.65,5-3.12,0-4-11.27-5.7-11.27-13.34,0-6.45,4.94-8.6,10.57-8.6a23.32,23.32,0,0,1,8.75,1.66L509,76.62a24.46,24.46,0,0,0-7-1.24c-2.15,0-4.3.38-4.3,2.74,0,4.2,11.38,6.29,11.38,13.82,0,7.37-7.14,8.66-12,8.66A22.27,22.27,0,0,1,487.87,98.88Z"/><path class="cls-2" d="M512.93,91.41c0-11,7.3-21,18.62-21a44.41,44.41,0,0,1,6.44.54l-3,29.14h-6.6l.49-4.41c-3.27,3.12-6.18,5.06-9,5.06C514.7,100.71,512.93,97,512.93,91.41Zm16.47-1.19L530.9,76a2.79,2.79,0,0,0-1-.1c-6.07,0-10.36,7.36-10.36,14.89,0,2.2.54,4.09,2.09,4.09C523.77,94.85,527.79,91.62,529.4,90.22Z"/><path class="cls-2" d="M335.3,151.79l2.89-6.29a27.29,27.29,0,0,0,9.93,2.05c3,0,7.46-.76,7.46-4.58,0-5.91-16.31-5.16-16.31-16.39,0-8,7-11.35,14.06-11.35A25.63,25.63,0,0,1,365,117.76l-3,5.91a24.17,24.17,0,0,0-8.75-1.61c-2.41,0-5.79.54-5.79,3.55,0,5.11,16.58,5.65,16.58,16.29,0,9.36-8.75,12.64-16.58,12.64A28.36,28.36,0,0,1,335.3,151.79Z"/><path class="cls-2" d="M367.12,143.51c0-11.56,5.85-19.73,15.51-19.73,6.76,0,10,5.06,10,10.75,0,8.18-3.49,19.95-15.45,19.95C370.71,154.48,367.12,149.8,367.12,143.51ZM386,134.86c0-4.36-1.72-5.76-4.72-5.76-3.76,0-7.41,5.59-7.41,13.93,0,3.23,1.13,6,4.51,6C382.09,149,386,143.84,386,134.86Z"/><path class="cls-2" d="M395.72,143.78c0-10.8,5.48-20.11,15.46-20.11a11.72,11.72,0,0,1,7.56,2.59l-3.06,4.4a7.78,7.78,0,0,0-4.56-1.61c-6.76,0-8.58,8.71-8.58,13.87,0,3.77,1,5.86,2.36,5.86,2.41,0,4.4-.59,8.8-2.79l2.15,4.57c-2.69,1.61-6.18,3.92-11.81,3.92C397.87,154.48,395.72,150,395.72,143.78Z"/><path class="cls-2" d="M423.31,124.48h6.6l-3.11,29.36h-6.55Zm-.48-9.14,5.25-4.63,4.24,4.63L427.06,120Z"/><path class="cls-2" d="M434.2,145.18c0-11,7.3-21,18.62-21a44.38,44.38,0,0,1,6.44.53l-3,29.15h-6.61l.49-4.41c-3.27,3.12-6.17,5-9,5C436,154.48,434.2,150.77,434.2,145.18ZM450.68,144l1.5-14.25a2.63,2.63,0,0,0-1-.11c-6.07,0-10.36,7.37-10.36,14.89,0,2.21.54,4.09,2.1,4.09C445,148.62,449.07,145.4,450.68,144Z"/><path class="cls-2" d="M468.22,113.24h6.61l-4.3,40.6H464Z"/><path class="cls-2" d="M482.39,124.48h6.55l-.38,3.76c2.15-1.5,6.07-4.51,9.56-4.51,3.86,0,5.31,1.23,5.63,4.35,2.2-1.56,6.55-4.35,9.87-4.35,4.29,0,5.8,1.5,5.8,5.75,0,.91-.11,2-.22,3.17L517,153.84H510.4l2.15-20c.05-.86.16-1.56.16-2.1,0-1.29-.37-1.77-1.61-1.77-1.82,0-6.33,2.79-7.51,3.38l-2.15,20.44h-6.6l2.15-20a19.41,19.41,0,0,0,.16-2.21c0-1.23-.37-1.61-1.61-1.61-1.83,0-6.28,2.91-7.57,3.61l-2.14,20.16h-6.55Z"/><path class="cls-2" d="M524.09,143.3c0-9.9,4.88-19.63,15.29-19.63,6.17,0,8.8,3.6,8.8,7.48,0,5-4.56,7.31-9.06,8.82l-8.27,2.84a6.71,6.71,0,0,0-.05,1c0,3.5.8,5.16,2.89,5.16,2.31,0,5.43-1.23,8.91-3.11l2.31,4.51c-3.75,2.37-7.51,4.14-12.72,4.14C525.49,154.48,524.09,148.68,524.09,143.3Zm14.71-8.5c2-.8,3.05-2,3.05-3.38a2.44,2.44,0,0,0-2.63-2.48c-4.24,0-6.81,3.71-7.83,8.66Z"/><path class="cls-2" d="M553.5,124.48h6.55l-.38,3.82c2.15-1.56,6.38-4.57,10-4.57,4.35,0,5.85,1.5,5.85,5.8,0,.92-.1,1.94-.21,3.12l-2.26,21.19h-6.59l2.14-20a18,18,0,0,0,.16-2.15c0-1.29-.37-1.72-1.61-1.72-2,0-6.86,3-8.1,3.66l-2.14,20.16h-6.55Z"/><path class="cls-2" d="M582.21,148.08a25.75,25.75,0,0,1,.16-2.58l1.72-16H579.8l.59-5h4.34l.59-6h6.55l-.65,6h8.11l-.48,5h-8.16l-1.77,16.35c-.27,2.26.05,2.85,1.45,2.85a24.09,24.09,0,0,0,6.49-1.4l1.23,4.95a22,22,0,0,1-9.17,2.2C584.73,154.48,582.21,153.35,582.21,148.08Z"/><path class="cls-2" d="M601.32,143.3c0-9.9,4.88-19.63,15.29-19.63,6.17,0,8.8,3.6,8.8,7.48,0,5-4.56,7.31-9.07,8.82l-8.26,2.84a5.6,5.6,0,0,0-.06,1c0,3.5.81,5.16,2.9,5.16,2.31,0,5.42-1.23,8.91-3.11l2.31,4.51c-3.76,2.37-7.51,4.14-12.72,4.14C602.71,154.48,601.32,148.68,601.32,143.3Zm14.7-8.5c2-.8,3.06-2,3.06-3.38a2.44,2.44,0,0,0-2.63-2.48c-4.24,0-6.81,3.71-7.84,8.66Z"/><path class="cls-2" d="M353.65,193.26a25.17,25.17,0,0,1-2.74.16c-.91,0-1.77-.06-2.68-.06l-1.5,14.25h-8.32l4-38H356.6c6.87,0,13,2.9,13,10.27,0,5.32-2.53,9.14-7.3,11.45l9.49,14.52-7.67,3.87Zm-1.34-5.81c5,0,8.69-1.45,8.69-7,0-3.76-2.9-4.3-6.23-4.3h-4.72l-1.18,11.29Z"/><path class="cls-2" d="M373.83,197.07c0-9.89,4.88-19.62,15.29-19.62,6.17,0,8.8,3.6,8.8,7.47,0,5-4.56,7.32-9.07,8.82l-8.26,2.85a6.64,6.64,0,0,0,0,1c0,3.49.8,5.16,2.89,5.16,2.31,0,5.42-1.24,8.91-3.12l2.31,4.52c-3.76,2.37-7.51,4.14-12.72,4.14C375.22,208.26,373.83,202.45,373.83,197.07Zm14.7-8.49c2-.81,3.06-2,3.06-3.39a2.43,2.43,0,0,0-2.63-2.47c-4.24,0-6.82,3.71-7.83,8.65Z"/><path class="cls-2" d="M398,206.43l1.77-5.22a25.55,25.55,0,0,0,7.94,1.46c2.15,0,5-.65,5-3.12,0-4-11.27-5.7-11.27-13.34,0-6.45,4.94-8.6,10.57-8.6a23.11,23.11,0,0,1,8.75,1.67l-1.66,4.89a24.52,24.52,0,0,0-7-1.24c-2.15,0-4.3.38-4.3,2.75,0,4.19,11.38,6.29,11.38,13.82,0,7.36-7.14,8.65-12,8.65A22.11,22.11,0,0,1,398,206.43Z"/><path class="cls-2" d="M427,178.26h6.6l-.32,2.84c1.93-1.45,5.31-3.17,8.31-3.17,5,0,7.46,2.91,7.46,9.14,0,9.25-4.29,21.08-16,21.08a17.37,17.37,0,0,1-2.53-.16l-1.23,11.45h-6.55Zm15.5,8.87c0-2.85-1.23-3.71-2.63-3.71-2.2,0-5.15,1.61-7.13,2.74L431,202.61a10,10,0,0,0,2.31.27C440.21,202.88,442.46,192.77,442.46,187.13Z"/><path class="cls-2" d="M452.18,197.29c0-11.56,5.85-19.73,15.51-19.73,6.76,0,10,5.05,10,10.75,0,8.17-3.48,19.95-15.45,19.95C455.78,208.26,452.18,203.58,452.18,197.29Zm18.89-8.66c0-4.35-1.72-5.75-4.72-5.75-3.76,0-7.41,5.59-7.41,13.93,0,3.22,1.13,6,4.51,6C467.15,202.78,471.07,197.61,471.07,188.63Z"/><path class="cls-2" d="M484.7,178.26h6.55l-.38,3.81c2.15-1.56,6.39-4.57,10-4.57,4.34,0,5.85,1.51,5.85,5.81,0,.91-.11,1.94-.22,3.12l-2.25,21.18h-6.6l2.14-19.94a18.09,18.09,0,0,0,.16-2.15c0-1.3-.37-1.73-1.61-1.73-2,0-6.86,3-8.1,3.66l-2.15,20.16h-6.54Z"/><path class="cls-2" d="M510.09,206.43l1.77-5.22a25.55,25.55,0,0,0,7.94,1.46c2.15,0,5-.65,5-3.12,0-4-11.27-5.7-11.27-13.34,0-6.45,4.94-8.6,10.57-8.6a23.15,23.15,0,0,1,8.75,1.67l-1.67,4.89a24.4,24.4,0,0,0-7-1.24c-2.14,0-4.29.38-4.29,2.75,0,4.19,11.38,6.29,11.38,13.82,0,7.36-7.14,8.65-12,8.65A22.11,22.11,0,0,1,510.09,206.43Z"/><path class="cls-2" d="M535.15,199c0-11,7.3-21,18.62-21a44.41,44.41,0,0,1,6.44.54l-3,29.14h-6.6l.49-4.41c-3.28,3.12-6.17,5.06-9,5.06C536.92,208.26,535.15,204.55,535.15,199Zm16.47-1.19,1.51-14.25a2.91,2.91,0,0,0-1-.1c-6.07,0-10.36,7.36-10.36,14.89,0,2.21.53,4.09,2.09,4.09C546,202.4,550,199.17,551.62,197.77Z"/><path class="cls-2" d="M565,206.81l4.13-39.74h6.49l-1.34,14c1.93-1.45,5.26-3.22,8.27-3.22,5.09,0,7.51,2.9,7.51,9.08,0,9.3-4.4,21.24-16.1,21.24A34.85,34.85,0,0,1,565,206.81ZM583.5,187c0-2.85-1.13-3.71-2.63-3.71-2.15,0-5.1,1.56-7.14,2.74L572,202.61a10.07,10.07,0,0,0,2.36.27C581.24,202.88,583.5,192.66,583.5,187Z"/><path class="cls-2" d="M598.26,167h6.6l-4.29,40.59H594Z"/><path class="cls-2" d="M608.51,197.07c0-9.89,4.88-19.62,15.29-19.62,6.17,0,8.8,3.6,8.8,7.47,0,5-4.56,7.32-9.07,8.82l-8.26,2.85a5.54,5.54,0,0,0-.06,1c0,3.49.81,5.16,2.9,5.16,2.31,0,5.42-1.24,8.91-3.12l2.31,4.52c-3.76,2.37-7.51,4.14-12.72,4.14C609.9,208.26,608.51,202.45,608.51,197.07Zm14.7-8.49c2-.81,3.06-2,3.06-3.39a2.43,2.43,0,0,0-2.63-2.47c-4.24,0-6.81,3.71-7.83,8.65Z"/></g><g id="R-2" data-name="R"><path class="cls-2" d="M661.32,183.38a6.74,6.74,0,1,1-6.72-6.56A6.59,6.59,0,0,1,661.32,183.38Zm-11.8,0a5.08,5.08,0,0,0,5.12,5.24,5,5,0,0,0,5-5.2,5.06,5.06,0,1,0-10.12,0Zm4,3.44H652v-6.56a13.29,13.29,0,0,1,2.52-.2,4.09,4.09,0,0,1,2.28.48,1.82,1.82,0,0,1,.64,1.44,1.68,1.68,0,0,1-1.36,1.52v.08a1.94,1.94,0,0,1,1.2,1.6,5,5,0,0,0,.48,1.64h-1.64a5.62,5.62,0,0,1-.52-1.6c-.12-.72-.52-1-1.36-1h-.72Zm0-3.72h.72c.84,0,1.52-.28,1.52-1s-.44-1-1.4-1a3.64,3.64,0,0,0-.84.08Z"/></g></g></g></svg>