<svg xmlns="http://www.w3.org/2000/svg" viewBox="0 0 241.4 293.78"><defs><style>.cls-1,.cls-2,.cls-3,.cls-4{fill:none;stroke-miterlimit:10;}.cls-1{stroke:#00a5b0;}.cls-2{stroke:#ffd51f;}.cls-3{stroke:#606060;}.cls-4{stroke:#3a547c;}</style></defs><g id="Capa_2" data-name="Capa 2"><g id="Capa_1-2" data-name="Capa 1"><path class="cls-1" d="M94.74,57.43H35.89a6,6,0,0,0-5.17,3l-29.42,51a6,6,0,0,0,0,6l29.42,51a6,6,0,0,0,5.17,3H94.74a6,6,0,0,0,5.17-3l29.42-51a6,6,0,0,0,0-6l-29.42-51A6,6,0,0,0,94.74,57.43Z"/><path class="cls-2" d="M94.74,179.42H35.89a6,6,0,0,0-5.17,3l-29.42,51a6,6,0,0,0,0,6l29.42,51a6,6,0,0,0,5.17,3H94.74a6,6,0,0,0,5.17-3l29.42-51a6,6,0,0,0,0-6l-29.42-51A6,6,0,0,0,94.74,179.42Z"/><path class="cls-3" d="M205.51.5H146.67a6,6,0,0,0-5.17,3l-29.42,51a6,6,0,0,0,0,6l29.42,51a6,6,0,0,0,5.17,3h58.84a6,6,0,0,0,5.17-3l29.42-51a6,6,0,0,0,0-6l-29.42-51A6,6,0,0,0,205.51.5Z"/><path class="cls-4" d="M205.51,122.49H146.67a6,6,0,0,0-5.17,3l-29.42,51a6,6,0,0,0,0,6l29.42,51a6,6,0,0,0,5.17,3h58.84a6,6,0,0,0,5.17-3l29.42-51a6,6,0,0,0,0-6l-29.42-51A6,6,0,0,0,205.51,122.49Z"/></g></g></svg>