<svg xmlns="http://www.w3.org/2000/svg" viewBox="0 0 308.62 409.66"><defs><style>.cls-1,.cls-2,.cls-3,.cls-4{fill:none;stroke-miterlimit:10;}.cls-1{stroke:#31a2ae;}.cls-2{stroke:#ffd51f;}.cls-3{stroke:#606060;}.cls-4{stroke:#3f5479;}</style></defs><g id="Capa_2" data-name="Capa 2"><g id="Capa_1-2" data-name="Capa 1"><path class="cls-1" d="M55.74,146.93,2.34,198.07A6,6,0,0,0,.67,203.8l17.59,71.81a6,6,0,0,0,4.13,4.31l71,20.67a6,6,0,0,0,5.8-1.42L152.57,248a6,6,0,0,0,1.67-5.73l-17.59-71.81a6,6,0,0,0-4.13-4.31l-71-20.67A6,6,0,0,0,55.74,146.93Z"/><path class="cls-2" d="M159.49,255.26l-53.4,51.14a6,6,0,0,0-1.66,5.73L122,383.94a5.94,5.94,0,0,0,4.13,4.31l71,20.67a6,6,0,0,0,5.8-1.42l53.4-51.14a6,6,0,0,0,1.67-5.73l-17.6-71.81a6,6,0,0,0-4.12-4.31l-71-20.68A6,6,0,0,0,159.49,255.26Z"/><path class="cls-3" d="M105.69,2.16,52.29,53.3A6,6,0,0,0,50.62,59l17.59,71.81a6,6,0,0,0,4.13,4.31l71,20.68a6,6,0,0,0,5.8-1.42l53.39-51.14a6,6,0,0,0,1.67-5.74L186.6,25.72a6,6,0,0,0-4.13-4.31L111.49.74A6,6,0,0,0,105.69,2.16Z"/><path class="cls-4" d="M209.44,110.49,156,161.63a6,6,0,0,0-1.66,5.73L172,239.17a5.94,5.94,0,0,0,4.13,4.31l71,20.68a6,6,0,0,0,5.8-1.42l53.4-51.15a6,6,0,0,0,1.67-5.73l-17.59-71.81a6,6,0,0,0-4.13-4.31l-71-20.67A6,6,0,0,0,209.44,110.49Z"/></g></g></svg>